<svg width="78" height="93" viewBox="0 0 78 93" fill="none" xmlns="http://www.w3.org/2000/svg">
<path d="M45.9249 1.33834C46.3965 1.33419 46.8617 1.44699 47.2786 1.66658C47.6956 1.88617 48.0513 2.20568 48.3138 2.59636L50.3135 5.5942C50.742 6.16499 51.2967 6.6297 51.9343 6.9523C52.572 7.2749 53.2757 7.44673 53.9907 7.45447C54.2159 7.45278 54.4406 7.43038 54.6617 7.38755L58.1779 6.69163C58.3607 6.67183 58.5452 6.67183 58.7281 6.69163C59.383 6.69408 60.017 6.92177 60.5231 7.33625C61.0292 7.75073 61.3764 8.32664 61.5062 8.96677L62.204 12.4999C62.408 13.3006 62.8248 14.0316 63.4106 14.6158C63.9964 15.1999 64.7294 15.6156 65.5323 15.819L69.0753 16.5149C69.4402 16.5869 69.7872 16.7299 70.0966 16.9357C70.406 17.1415 70.6718 17.406 70.8786 17.7143C71.0855 18.0225 71.2295 18.3683 71.3023 18.732C71.3752 19.0957 71.3754 19.4701 71.3031 19.8339L70.5918 23.3671C70.4742 24.1843 70.5791 25.018 70.8955 25.7808C71.2119 26.5437 71.7281 27.2077 72.3902 27.7033L75.3964 29.6974C75.707 29.9026 75.974 30.167 76.182 30.4753C76.39 30.7836 76.535 31.1298 76.6085 31.4941C76.6821 31.8584 76.6828 32.2336 76.6107 32.5982C76.5386 32.9627 76.395 33.3095 76.1882 33.6187L74.1751 36.6031C73.7509 37.3135 73.5269 38.125 73.5269 38.9519C73.5269 39.7787 73.7509 40.5902 74.1751 41.3006L76.1882 44.2985C76.5897 44.9206 76.7317 45.6746 76.5837 46.3996C76.4358 47.1246 76.0098 47.7634 75.3964 48.1796L72.3902 50.1737C71.727 50.6683 71.2099 51.3322 70.8934 52.0953C70.5769 52.8585 70.4727 53.6926 70.5918 54.5099L71.3031 58.043C71.4455 58.7774 71.2913 59.5381 70.8741 60.1597C70.4568 60.7812 69.8104 61.2134 69.0753 61.3621L65.5323 62.058C64.7294 62.2614 63.9964 62.6771 63.4106 63.2612C62.8248 63.8454 62.408 64.5764 62.204 65.377L61.949 66.7154L69.9208 83.7388L60.9962 83.4979L55.4535 90.4706L48.3138 75.1736C48.0539 75.5605 47.7024 75.8776 47.2905 76.097C46.8785 76.3164 46.4188 76.4313 45.9518 76.4316C45.3941 76.4293 44.8489 76.2667 44.3816 75.9632L41.3888 73.9557C40.6784 73.527 39.8639 73.3004 39.0335 73.3004C38.2032 73.3004 37.3886 73.527 36.6782 73.9557L33.672 75.9632C33.2047 76.2667 32.6595 76.4293 32.1018 76.4316C31.6348 76.4313 31.1751 76.3164 30.7631 76.097C30.3512 75.8776 29.9997 75.5605 29.7398 75.1736L22.5464 90.4706L17.0037 83.4979L8.05227 83.7388L16.1046 66.6752L15.8496 65.3369C15.6456 64.5362 15.2288 63.8052 14.643 63.2211C14.0572 62.6369 13.3242 62.2212 12.5213 62.0179L8.97828 61.3219C8.61119 61.2544 8.26111 61.1152 7.94817 60.9123C7.63524 60.7093 7.36562 60.4467 7.15484 60.1395C6.94405 59.8323 6.79626 59.4865 6.71995 59.1222C6.64364 58.7578 6.64034 58.3819 6.71022 58.0163L7.4215 54.4831C7.53914 53.6659 7.43427 52.8323 7.11788 52.0694C6.8015 51.3065 6.28523 50.6425 5.62315 50.1469L2.60354 48.1796C1.97898 47.7628 1.54517 47.1165 1.39682 46.3818C1.24847 45.6471 1.39763 44.8837 1.81173 44.2583L3.82481 41.2605C4.24905 40.5501 4.473 39.7386 4.473 38.9117C4.473 38.0849 4.24905 37.2734 3.82481 36.563L1.81173 33.5785C1.39763 32.9531 1.24847 32.1897 1.39682 31.4551C1.54517 30.7204 1.97898 30.0741 2.60354 29.6572L5.60973 27.6631C6.2751 27.1705 6.79384 26.5069 7.11057 25.7432C7.42729 24.9795 7.53012 24.1444 7.40808 23.327L6.71022 19.767C6.56788 19.0327 6.72209 18.272 7.13929 17.6504C7.5565 17.0288 8.20295 16.5967 8.93802 16.448L12.481 15.7521C13.284 15.5487 14.017 15.133 14.6027 14.5488C15.1885 13.9647 15.6054 13.2337 15.8093 12.433L16.5072 8.89986C16.6476 8.27317 16.9979 7.7129 17.5005 7.31146C18.0031 6.91003 18.6279 6.6914 19.2718 6.69163C19.4547 6.67183 19.6392 6.67183 19.8221 6.69163L23.3651 7.40094C23.5862 7.44377 23.8108 7.46617 24.0361 7.46785C24.7513 7.46113 25.4553 7.28975 26.0931 6.96707C26.731 6.64438 27.2854 6.17913 27.7133 5.60758L29.713 2.60974C29.9714 2.22037 30.3221 1.9006 30.7342 1.67882C31.1462 1.45703 31.6068 1.34008 32.075 1.33834C32.6336 1.33428 33.1806 1.49745 33.6452 1.80675L36.6514 3.81423C37.3516 4.26038 38.1692 4.48866 39 4.47001C39.8342 4.48265 40.6543 4.25494 41.362 3.81423L44.3547 1.80675C44.8194 1.49745 45.3663 1.33428 45.9249 1.33834ZM39 64.2395C44.024 64.2395 48.9353 62.754 53.1128 59.9708C57.2904 57.1876 60.5466 53.2317 62.4699 48.6032C64.3931 43.9747 64.897 38.8815 63.9178 33.9675C62.9386 29.0534 60.5204 24.5392 56.9688 20.9956C53.4172 17.452 48.8917 15.0381 43.9645 14.059C39.0373 13.08 33.9296 13.5798 29.2872 15.4952C24.6448 17.4107 20.6761 20.6558 17.883 24.8202C15.0898 28.9847 13.5976 33.8815 13.5949 38.8917C13.5932 42.2197 14.249 45.5156 15.5249 48.5908C16.8009 51.6661 18.6719 54.4605 21.0312 56.8145C23.3904 59.1684 26.1916 61.0357 29.2748 62.3097C32.3579 63.5837 35.6626 64.2395 39 64.2395ZM39 16.3811C43.4678 16.3811 47.8352 17.7024 51.5499 20.178C55.2645 22.6535 58.1595 26.1721 59.8687 30.2886C61.5778 34.4051 62.0243 38.9346 61.1517 43.3042C60.2791 47.6738 58.1266 51.6871 54.9664 54.8366C51.8063 57.9861 47.7805 60.1303 43.3982 60.9978C39.0159 61.8654 34.474 61.4175 30.3471 59.7106C26.2201 58.0038 22.6935 55.1147 20.2133 51.4089C17.733 47.7031 16.4106 43.347 16.4132 38.8917C16.4168 32.919 18.7976 27.192 23.0327 22.9687C27.2677 18.7454 33.0107 16.3712 39 16.3677M36.034 42.4114C35.852 42.4143 35.6712 42.3802 35.5028 42.3112C35.3344 42.2421 35.1818 42.1396 35.0543 42.0099L31.3771 38.3429C31.2497 38.2132 31.0971 38.1108 30.9287 38.0417C30.7602 37.9727 30.5795 37.9386 30.3974 37.9414C30.0271 37.9438 29.6717 38.0875 29.4043 38.3429L28.5588 39.1861C28.2989 39.4533 28.1536 39.8109 28.1536 40.1831C28.1536 40.5554 28.2989 40.913 28.5588 41.1802L34.0075 46.6138C34.2704 46.8802 34.5837 47.0919 34.9293 47.2366C35.2749 47.3813 35.6458 47.4562 36.0206 47.4569C36.3912 47.4629 36.759 47.3922 37.1008 47.2494C37.4427 47.1066 37.7512 46.8947 38.0068 46.6272L49.119 35.5592C49.2596 35.4337 49.3721 35.28 49.4491 35.1082C49.5261 34.9364 49.5658 34.7504 49.5658 34.5622C49.5658 34.374 49.5261 34.1879 49.4491 34.0161C49.3721 33.8443 49.2596 33.6907 49.119 33.5651L48.3138 32.7086C48.1828 32.5771 48.0271 32.4727 47.8555 32.4015C47.6839 32.3303 47.4998 32.2936 47.314 32.2936C47.1281 32.2936 46.9441 32.3303 46.7725 32.4015C46.6009 32.4727 46.4451 32.5771 46.3141 32.7086L37.0406 41.9966C36.7719 42.2601 36.4109 42.4089 36.034 42.4114ZM45.9249 1.50301e-05C45.099 -0.00219789 44.291 0.239997 43.6032 0.695942L40.6104 2.67666C40.1203 2.95726 39.5651 3.10492 39 3.10492C38.4348 3.10492 37.8796 2.95726 37.3895 2.67666L34.3967 0.695942C33.4732 0.0873052 32.3462 -0.133221 31.2605 0.0823023C30.1749 0.297826 29.2184 0.931977 28.5991 1.8469L26.5994 4.84474C26.3 5.24511 25.9142 5.57325 25.4705 5.8049C25.0268 6.03655 24.5366 6.16579 24.0361 6.18306C23.9023 6.19755 23.7673 6.19755 23.6335 6.18306L20.1307 5.3533C19.8452 5.32356 19.5573 5.32356 19.2718 5.3533C18.3191 5.37093 17.4009 5.71208 16.6689 6.32039C15.9369 6.92871 15.4348 7.76781 15.2457 8.69911L14.5478 12.2323C14.3956 12.7751 14.1058 13.2696 13.7061 13.6681C13.3065 14.0666 12.8106 14.3557 12.2663 14.5074L8.72329 15.2034C8.18203 15.3031 7.66581 15.5083 7.20416 15.8073C6.74251 16.1062 6.34449 16.4929 6.03287 16.9454C5.72124 17.3978 5.50214 17.9071 5.38808 18.4441C5.27402 18.9811 5.26726 19.5352 5.36816 20.0748L6.07945 23.608C6.1485 24.1655 6.07099 24.7312 5.85452 25.2498C5.63806 25.7683 5.29008 26.2218 4.84476 26.5657L1.85199 28.5197C1.39183 28.8246 0.997867 29.2187 0.693534 29.6785C0.389202 30.1383 0.180718 30.6545 0.0804831 31.1963C-0.0282912 31.7331 -0.029752 32.2861 0.0761843 32.8235C0.182121 33.3609 0.393371 33.8722 0.697827 34.328L2.68406 37.2857C2.9616 37.7757 3.10745 38.3289 3.10745 38.8917C3.10745 39.4544 2.9616 40.0076 2.68406 40.4976L0.697827 43.4821C0.393371 43.9379 0.182121 44.4492 0.0761843 44.9866C-0.029752 45.524 -0.0282912 46.0769 0.0804831 46.6138C0.180718 47.1556 0.389202 47.6717 0.693534 48.1316C0.997867 48.5914 1.39183 48.9855 1.85199 49.2904L4.85818 51.2577C5.3035 51.6017 5.65148 52.0551 5.86794 52.5737C6.08441 53.0922 6.16192 53.658 6.09287 54.2154L5.36816 57.7486C5.15458 58.8308 5.37906 59.9534 5.99259 60.8711C6.60612 61.7889 7.55886 62.4272 8.64277 62.6469L12.1858 63.3428C12.729 63.4866 13.2258 63.7679 13.6278 64.1595C14.0299 64.5511 14.3237 65.0396 14.4807 65.5778L14.6552 66.4745L6.85784 83.1767L5.94525 85.1307H8.11937L16.373 84.9032L21.4728 91.3003L22.8148 93L23.7677 91.0059L30.1827 77.3015C30.8436 77.6371 31.582 77.7916 32.3224 77.7493C33.0628 77.707 33.7786 77.4693 34.3967 77.0606L37.3895 75.0531C37.8796 74.7725 38.4348 74.6248 39 74.6248C39.5651 74.6248 40.1203 74.7725 40.6104 75.0531L43.6032 77.0606C44.291 77.5165 45.099 77.7587 45.9249 77.7565C46.5871 77.7553 47.2397 77.5994 47.8307 77.3015L54.2322 91.0059L55.1583 92.9732L56.5003 91.2736L61.6269 84.8229L69.8806 85.0504H72.0547L71.1287 83.1767L63.3448 66.5012L63.5192 65.6046C63.6698 65.0689 63.9544 64.5803 64.3465 64.1846C64.7386 63.789 65.2252 63.4993 65.7605 63.3428L69.3035 62.6469C69.841 62.5397 70.3522 62.328 70.8077 62.0239C71.2632 61.7197 71.6542 61.329 71.9583 60.8742C72.2623 60.4193 72.4736 59.9092 72.5799 59.3729C72.6863 58.8366 72.6857 58.2847 72.5781 57.7486L71.8668 54.2154C71.7977 53.658 71.8753 53.0922 72.0917 52.5737C72.3082 52.0551 72.6562 51.6017 73.1015 51.2577L76.1077 49.2637C76.5678 48.9587 76.9618 48.5646 77.2661 48.1048C77.5705 47.645 77.7789 47.1288 77.8792 46.587C77.988 46.0502 77.9894 45.4972 77.8835 44.9598C77.7775 44.4224 77.5663 43.9112 77.2618 43.4553L75.2488 40.4709C74.9712 39.9809 74.8254 39.4277 74.8254 38.8649C74.8254 38.3021 74.9712 37.7489 75.2488 37.2589L77.2618 34.2744C77.5663 33.8186 77.7775 33.3074 77.8835 32.77C77.9894 32.2326 77.988 31.6796 77.8792 31.1428C77.7789 30.601 77.5705 30.0848 77.2661 29.625C76.9618 29.1651 76.5678 28.771 76.1077 28.4661L73.1417 26.5256C72.6964 26.1816 72.3484 25.7282 72.132 25.2096C71.9155 24.6911 71.838 24.1253 71.9071 23.5679L72.6183 20.0748C72.8319 18.9926 72.6074 17.8701 71.9939 16.9523C71.3804 16.0346 70.4276 15.3962 69.3437 15.1766L65.7605 14.4405C65.2173 14.2865 64.7227 13.9966 64.3234 13.5984C63.9241 13.2003 63.6335 12.707 63.479 12.1654L62.7811 8.63219C62.5775 7.70881 62.0658 6.88165 61.3295 6.28603C60.5933 5.6904 59.6761 5.36156 58.7281 5.3533C58.4533 5.35347 58.1791 5.38036 57.9095 5.4336L54.3664 6.14291C54.2326 6.1574 54.0976 6.1574 53.9638 6.14291C53.4633 6.12564 52.9731 5.9964 52.5294 5.76475C52.0857 5.5331 51.6999 5.20496 51.4005 4.80459L49.4009 1.8469C49.017 1.27921 48.4994 0.814012 47.8934 0.492037C47.2874 0.170062 46.6116 0.00112523 45.9249 1.50301e-05ZM39 62.9011C34.2419 62.8985 29.5914 61.4892 25.6363 58.8515C21.6813 56.2138 18.5991 52.4659 16.7795 48.0818C14.9599 43.6976 14.4845 38.8739 15.4134 34.2203C16.3423 29.5668 18.6338 25.2923 21.9983 21.9372C25.3628 18.5821 29.6491 16.297 34.3156 15.3707C38.9822 14.4443 43.8193 14.9184 48.2157 16.733C52.6121 18.5475 56.3703 21.6211 59.0154 25.5652C61.6605 29.5093 63.0737 34.1468 63.0764 38.8917C63.0728 45.2583 60.535 51.3631 56.0206 55.865C51.5062 60.3669 45.3843 62.8976 39 62.9011ZM39 15.0428C34.2667 15.0428 29.6398 16.4426 25.7045 19.0652C21.7691 21.6878 18.7021 25.4154 16.8914 29.7764C15.0807 34.1375 14.6076 38.9361 15.532 43.5653C16.4564 48.1945 18.7367 52.4463 22.0845 55.783C25.4324 59.1196 29.6973 61.3912 34.3399 62.3104C38.9825 63.2297 43.7942 62.7552 48.1664 60.9471C52.5386 59.1389 56.2748 56.0784 58.9025 52.1525C61.5302 48.2266 62.9314 43.6117 62.9287 38.8917C62.9216 32.5652 60.3983 26.4998 55.9123 22.0263C51.4263 17.5528 45.3441 15.0365 39 15.0294V15.0428ZM36.034 43.7498C36.3985 43.7492 36.7592 43.6768 37.0955 43.5367C37.4317 43.3966 37.7369 43.1915 37.9934 42.9334L47.2804 33.6722H47.3744L48.2199 34.5153C48.2199 34.5153 48.2199 34.5956 48.2199 34.6224L37.1077 45.7037C36.9734 45.8411 36.8126 45.9498 36.635 46.0234C36.4574 46.097 36.2666 46.134 36.0743 46.132C35.6765 46.1291 35.2957 45.9705 35.0141 45.6903L29.5251 40.23C29.518 40.2178 29.5143 40.2039 29.5143 40.1898C29.5143 40.1757 29.518 40.1619 29.5251 40.1497L30.3706 39.3065L31.3905 38.3563L30.4511 39.3065L34.1283 42.9735C34.3796 43.2256 34.6787 43.4253 35.0082 43.5609C35.3377 43.6964 35.691 43.7652 36.0475 43.7631L36.034 43.7498Z" fill="#F4F4F2"/>
</svg>
