<svg width="152" height="78" viewBox="0 0 152 78" fill="none" xmlns="http://www.w3.org/2000/svg">
<path d="M67.8041 67.3394H69.4031V73.0597H72.2014V74.4012H67.8041V67.3394Z" fill="#001F40"/>
<path d="M78.582 71.4099H75.9837V73.0906H78.8742V74.4012H74.3846V67.3394H78.7358V68.6499H75.9837V70.1147H78.582V71.4099Z" fill="#001F40"/>
<path d="M82.8562 72.5817L82.3489 74.4012H80.7037L82.8562 67.3394H84.9473L87.1151 74.4012H85.4085L84.8704 72.5817H82.8562ZM84.6398 71.3945L84.1939 69.8526C84.0709 69.4363 83.9479 68.9121 83.8403 68.4958C83.7326 68.9121 83.625 69.4517 83.5174 69.8526L83.1022 71.3945H84.6398Z" fill="#001F40"/>
<path d="M89.3138 67.4465C90.0156 67.3362 90.7253 67.2847 91.4356 67.2924C92.2347 67.2165 93.036 67.412 93.7111 67.8474C93.9339 68.0339 94.1088 68.2713 94.2211 68.5396C94.3335 68.8078 94.38 69.0992 94.3569 69.3893C94.3499 69.7702 94.2269 70.1399 94.0043 70.4486C93.7816 70.7574 93.4701 70.9903 93.1115 71.1162C93.3604 71.2482 93.5749 71.437 93.7378 71.6673C93.9007 71.8976 94.0074 72.163 94.0494 72.4422C94.2646 73.2286 94.4799 74.1537 94.6183 74.4313H92.9885C92.7776 73.8978 92.618 73.3454 92.5119 72.7814C92.312 71.9026 92.0199 71.6713 91.3741 71.6559H90.8821V74.4313H89.3446L89.3138 67.4465ZM90.8514 70.5303H91.4817C92.2812 70.5303 92.7425 70.1448 92.7425 69.5127C92.7425 68.8805 92.3427 68.5413 91.6047 68.5413C91.3642 68.5241 91.1227 68.5241 90.8821 68.5413L90.8514 70.5303Z" fill="#001F40"/>
<path d="M96.7554 74.4012V67.3394H98.6158L100.076 69.9297C100.511 70.7092 100.891 71.5181 101.214 72.3505C101.111 71.3723 101.065 70.389 101.076 69.4055V67.3394H102.613V74.4012H100.907L99.3691 71.672C98.9183 70.868 98.5128 70.0392 98.1545 69.1896C98.1545 70.1147 98.1545 71.1015 98.1545 72.2734V74.4012H96.7554Z" fill="#001F40"/>
<path d="M106.795 67.3394H105.196V74.3857H106.795V67.3394Z" fill="#001F40"/>
<path d="M109.424 74.4012V67.3394H111.285L112.822 69.9297C113.256 70.7121 113.641 71.5206 113.975 72.3505C113.873 71.3723 113.827 70.389 113.837 69.4055V67.3394H115.375V74.4012H113.576L112.038 71.672C111.623 70.9319 111.162 70.0068 110.808 69.1896C110.808 70.1147 110.808 71.1015 110.808 72.2734V74.4012H109.424Z" fill="#001F40"/>
<path d="M123.754 74.0766C122.995 74.3307 122.202 74.4659 121.402 74.4775C120.888 74.5157 120.372 74.4509 119.883 74.2867C119.395 74.1226 118.944 73.8624 118.557 73.5215C118.22 73.1896 117.957 72.79 117.785 72.3489C117.612 71.9078 117.535 71.4351 117.558 70.962C117.548 70.446 117.648 69.9339 117.851 69.4597C118.054 68.9855 118.356 68.56 118.735 68.2115C119.115 67.863 119.564 67.5994 120.053 67.4383C120.542 67.2772 121.059 67.2221 121.571 67.2769C122.259 67.2441 122.945 67.3598 123.585 67.6161L123.262 68.8959C122.742 68.6764 122.181 68.5713 121.617 68.5875C121.005 68.5732 120.413 68.8031 119.97 69.2267C119.528 69.6503 119.271 70.2329 119.257 70.8463C119.242 71.4597 119.472 72.0537 119.894 72.4975C120.317 72.9414 120.898 73.1988 121.509 73.2131C121.77 73.2256 122.031 73.189 122.278 73.1052V71.625H121.202V70.3761H123.815L123.754 74.0766Z" fill="#001F40"/>
<path d="M131.211 67.3394V70.0531H133.825V67.3394H135.408V74.4012H133.825V71.4407H131.211V74.4012H129.612V67.3394H131.211Z" fill="#001F40"/>
<path d="M139.636 67.3394V71.4099C139.636 72.6126 140.098 73.2293 140.913 73.2293C141.727 73.2293 142.204 72.6434 142.204 71.4099V67.3394H143.742V71.302C143.742 73.476 142.65 74.5091 140.82 74.5091C138.991 74.5091 137.991 73.5223 137.991 71.2866V67.3394H139.636Z" fill="#001F40"/>
<path d="M146.417 67.4469C147.098 67.3342 147.787 67.2826 148.477 67.2927C149.193 67.2283 149.912 67.3673 150.553 67.6936C150.806 67.8217 151.02 68.0177 151.169 68.26C151.318 68.5022 151.398 68.7811 151.398 69.0659C151.409 69.416 151.301 69.7595 151.092 70.0397C150.882 70.32 150.584 70.5203 150.245 70.6077C150.641 70.6954 150.996 70.9157 151.25 71.2325C151.504 71.5492 151.643 71.9434 151.644 72.3501C151.654 72.6476 151.592 72.9432 151.464 73.2116C151.335 73.4801 151.144 73.7134 150.906 73.8919C150.082 74.4112 149.108 74.6392 148.139 74.5395C147.563 74.5413 146.988 74.5053 146.417 74.4316V67.4469ZM147.954 70.1452H148.477C149.307 70.1452 149.753 69.7905 149.753 69.2663C149.753 68.7421 149.354 68.4491 148.631 68.4491C148.406 68.4332 148.18 68.4332 147.954 68.4491V70.1452ZM147.954 73.2289H148.569C149.292 73.2289 149.922 72.9514 149.922 72.2113C149.922 71.4712 149.292 71.2245 148.493 71.2245H147.954V73.2289Z" fill="#001F40"/>
<path d="M53.4745 66.1821H0V75.1713H53.4745V66.1821Z" fill="#001F40"/>
<path d="M62.8994 13.3733C62.8992 10.9561 62.2203 8.58777 60.9406 6.53935C59.6609 4.49093 57.8321 2.84517 55.6633 1.79039C53.4945 0.73562 51.0734 0.314441 48.6771 0.575054C46.2807 0.835666 44.006 1.76754 42.1131 3.26405C40.2202 4.76055 38.7856 6.76123 37.9736 9.03714C37.1615 11.313 37.0047 13.7722 37.5212 16.1333C38.0377 18.4944 39.2065 20.662 40.894 22.388C42.5814 24.1141 44.7194 25.3289 47.0631 25.8934V18.9241H44.5877L50.1227 6.98994L55.5347 18.9241H52.9825V25.9088C55.8033 25.2478 58.3183 23.6495 60.1187 21.3737C61.9191 19.0979 62.8991 16.2783 62.8994 13.3733Z" fill="#001F40"/>
<path d="M47.0631 25.8936V48.8059C47.0631 54.6341 44.6799 57.5483 39.9137 57.5483C38.879 57.6214 37.8423 57.4373 36.8955 57.0123C35.9488 56.5873 35.1212 55.9347 34.4863 55.1121C33.3193 53.3388 32.7532 51.2356 32.8719 49.1142V28.7923H26.9371V50.0394C26.8815 51.7634 27.1792 53.4805 27.8117 55.0846C28.4441 56.6886 29.398 58.1455 30.6142 59.3652C31.8305 60.5849 33.2832 61.5415 34.8828 62.1758C36.4823 62.81 38.1945 63.1085 39.9137 63.0528C41.6559 63.1095 43.391 62.8046 45.0102 62.1572C46.6294 61.5098 48.0978 60.5339 49.3232 59.2906C50.5397 58.0331 51.4907 56.5424 52.1194 54.9078C52.7482 53.2732 53.0417 51.5282 52.9825 49.7772V25.909C52.0245 26.1318 51.0446 26.2456 50.0612 26.2482C49.0257 26.2551 47.9932 26.136 46.9862 25.8936" fill="#0070FF"/>
<path d="M67.4504 40.9116C66.7586 40.9116 66.082 41.0504 65.4363 41.1583C63.3694 41.6704 61.4386 42.628 59.7783 43.9645C58.4253 45.306 56.9031 46.6628 56.7032 53.6013V57.2864C56.7409 57.9385 56.7409 58.5924 56.7032 59.2445V77.5004H62.4535V61.2798C64.2418 62.8697 66.5685 63.7137 68.9572 63.6389C70.3997 63.6655 71.8295 63.3645 73.1395 62.7583C74.4495 62.1522 75.6058 61.2567 76.5217 60.1388C78.3674 57.8952 79.3445 55.0596 79.2739 52.1519C79.3652 49.2435 78.3481 46.4095 76.4295 44.2267C74.4307 42.0064 71.4479 40.9116 67.4658 40.9116M71.0021 57.641C70.4522 58.0666 69.7886 58.3189 69.0956 58.3657C68.2499 58.4582 67.7733 58.5199 67.6503 58.5507C66.8705 58.5585 66.0997 58.3826 65.4 58.0371C64.7004 57.6917 64.0914 57.1863 63.622 56.5617C62.6605 55.2986 62.166 53.74 62.2229 52.1519C62.1989 50.5599 62.7443 49.0119 63.7604 47.7884C64.2337 47.1892 64.8405 46.7097 65.5321 46.3883C66.2236 46.067 66.9808 45.9128 67.7426 45.9381C68.5404 45.9071 69.3355 46.0494 70.0732 46.3555C70.811 46.6616 71.4741 47.1241 72.0168 47.7113C73.0712 48.9431 73.6206 50.5299 73.5543 52.1519C73.6289 53.2154 73.4273 54.28 72.9692 55.2421C72.5111 56.2041 71.8122 57.0306 70.9406 57.641" fill="#0070FF"/>
<path d="M91.4663 33.5103H85.7314L85.7007 40.8958L81.8262 40.9113V46.1691L85.7314 46.2153V62.3125H91.4663V46.2153H95.4024V41.0038H91.4663V33.5103Z" fill="#001F40"/>
<path d="M109.655 40.9115C108.232 40.8717 106.815 41.1248 105.493 41.6552C104.171 42.1855 102.971 42.982 101.968 43.9953C100.954 45.0183 100.158 46.2376 99.6296 47.5789C99.1009 48.9203 98.8501 50.3555 98.8925 51.7972C98.8566 53.2658 99.1097 54.7271 99.6374 56.0976C100.165 57.468 100.957 58.7207 101.968 59.7841C102.955 60.8273 104.149 61.6516 105.473 62.2039C106.797 62.7563 108.221 63.0245 109.655 62.9912C111.933 63.0364 114.139 62.1903 115.805 60.6321V62.3745H121.586V52.2597C120.633 41.8521 113.422 40.7882 109.655 40.9115ZM114.375 56.3303C113.829 56.9272 113.16 57.3968 112.413 57.7058C111.667 58.0149 110.862 58.1559 110.055 58.1189C109.287 58.1227 108.53 57.9428 107.845 57.5942C107.16 57.2456 106.569 56.7383 106.119 56.1144C105.124 54.9207 104.58 53.4143 104.581 51.8589C104.534 50.2909 105.083 48.7636 106.119 47.5879C106.632 47.0145 107.264 46.5603 107.97 46.2567C108.677 45.9531 109.441 45.8076 110.209 45.8301C110.978 45.7891 111.748 45.9152 112.464 46.2C113.181 46.4847 113.827 46.9213 114.36 47.4799C115.409 48.6474 115.961 50.1805 115.897 51.7509C115.997 53.4337 115.447 55.0904 114.36 56.3766" fill="#001F40"/>
<path d="M138.545 51.1643C137.105 50.1999 135.557 49.4081 133.932 48.8052C132.287 48.1114 131.457 47.4792 131.457 46.9396C131.458 46.7879 131.492 46.6383 131.559 46.502C131.626 46.3658 131.722 46.2465 131.841 46.1532C132.048 45.9409 132.33 45.819 132.625 45.814C134.154 45.7938 135.662 46.1653 137.007 46.8933L139.729 43.8095C138.974 43.0217 138.04 42.4291 137.007 42.0826C135.796 41.2679 134.36 40.8578 132.902 40.9108C131.119 40.8959 129.394 41.5441 128.059 42.7302C127.388 43.2663 126.847 43.9494 126.48 44.727C126.112 45.5047 125.926 46.3565 125.937 47.2171C125.952 48.0906 126.184 48.9466 126.611 49.7082C127.037 50.4699 127.646 51.1133 128.382 51.5806C129.817 52.4657 131.295 53.2787 132.81 54.0168C133.418 54.1672 133.969 54.4925 134.395 54.9527C134.821 55.4129 135.104 55.9879 135.208 56.6071C135.003 57.0242 134.697 57.3835 134.319 57.6526C133.94 57.9218 133.501 58.0924 133.041 58.149C131.185 57.8156 129.367 57.2991 127.613 56.6071L125.122 60.323C127.281 61.9005 129.864 62.7873 132.533 62.8671C133.633 62.9709 134.743 62.8553 135.799 62.5272C136.854 62.1991 137.834 61.6648 138.683 60.9552C139.419 60.3518 140.012 59.592 140.418 58.7306C140.825 57.8693 141.036 56.928 141.036 55.975C141.043 55.0303 140.82 54.0982 140.385 53.2597C139.951 52.4213 139.319 51.702 138.545 51.1643Z" fill="#001F40"/>
</svg>
