<svg width="98" height="98" viewBox="0 0 98 98" fill="none" xmlns="http://www.w3.org/2000/svg">
<path d="M48.5002 0.485612C49.7847 0.485612 51.0165 0.995859 51.9247 1.9041C52.833 2.81235 53.3432 4.0442 53.3432 5.32865C53.3432 8.00272 51.6199 12.1475 48.5002 12.1475C45.3805 12.1475 43.6572 8.00272 43.6572 5.32865C43.6572 4.0442 44.1674 2.81235 45.0757 1.9041C45.9839 0.995859 47.2157 0.485612 48.5002 0.485612M51.1446 13.6034C51.4156 13.6016 51.684 13.6573 51.9319 13.7668V13.7668L56.1807 15.3416C56.9481 15.6183 57.6279 16.0945 58.1501 16.7211C58.6723 17.3478 59.0181 18.1023 59.1519 18.907L60.3998 25.8893C60.6851 27.3993 60.6191 28.9548 60.2067 30.4352L57.7406 39.5122C57.6185 40.0238 57.325 40.4783 56.9087 40.7999C56.4925 41.1216 55.9787 41.291 55.4528 41.28H55.1705L54.0266 61.603C53.9962 62.2021 53.7376 62.7669 53.3039 63.1813C52.8701 63.5957 52.2941 63.8283 51.6942 63.8314H45.2765C44.678 63.8281 44.1038 63.595 43.6724 63.1803C43.241 62.7655 42.9856 62.2008 42.9589 61.603L41.815 41.28H41.5179C40.9997 41.2823 40.4957 41.1109 40.0864 40.7932C39.677 40.4754 39.386 40.0296 39.2598 39.527L36.8086 30.45C36.3962 28.9696 36.3301 27.4142 36.6154 25.9041L37.8633 18.9218C37.9971 18.1171 38.3429 17.3626 38.8652 16.736C39.3874 16.1093 40.0672 15.6331 40.8345 15.3564L45.0536 13.7668C45.3068 13.6574 45.58 13.6017 45.8558 13.6034C46.0462 13.6072 46.2355 13.6321 46.4204 13.6777L47.906 14.0194C48.0858 14.065 48.2702 14.0899 48.4556 14.0937C48.6362 14.0898 48.8157 14.0649 48.9904 14.0194L50.476 13.6777C50.6657 13.6311 50.8601 13.6062 51.0554 13.6034M48.5002 32.7082C48.5832 32.712 48.6657 32.6933 48.7389 32.6541C48.8121 32.6148 48.8734 32.5565 48.9162 32.4853L50.0304 31.1631C50.213 30.8762 50.2916 30.5354 50.2532 30.1975L49.3321 17.3025L49.8372 16.634C50.0304 16.4112 50.2235 16.1586 50.1492 15.9061C50.1457 15.8851 50.1347 15.8661 50.1184 15.8525C50.102 15.8388 50.0813 15.8315 50.0601 15.8318V15.8318C49.5706 15.9261 49.0729 15.9709 48.5745 15.9655C48.0721 15.9821 47.5703 15.9169 47.0889 15.7724C47.0889 15.7724 46.97 15.7724 46.97 15.7724C46.866 16.0695 47.0592 16.322 47.2523 16.5746L47.7574 17.2431L46.7472 30.1975C46.7156 30.5256 46.794 30.8548 46.97 31.1334L48.0842 32.4556C48.1258 32.528 48.1868 32.5872 48.2603 32.6266C48.3338 32.666 48.417 32.6839 48.5002 32.6784M82.862 16.8271C83.9849 16.8271 85.0618 17.2732 85.8558 18.0672C86.6499 18.8613 87.0959 19.9382 87.0959 21.0611C87.0959 23.3935 85.6103 27.0035 82.862 27.0035C80.1136 27.0035 78.628 23.3786 78.628 21.0611C78.6261 20.5045 78.7343 19.9531 78.9463 19.4385C79.1584 18.9239 79.4702 18.4564 79.8638 18.0629C80.2573 17.6693 80.7248 17.3575 81.2394 17.1454C81.754 16.9334 82.3054 16.8252 82.862 16.8271M14.1384 26.8103C15.2522 26.8221 16.3162 27.2738 17.0982 28.067C17.8803 28.8602 18.3169 29.9304 18.3129 31.0443C18.3129 33.3767 16.8273 36.9867 14.079 36.9867C11.3306 36.9867 9.84504 33.3618 9.84504 31.0443C9.84504 30.4883 9.95455 29.9377 10.1673 29.424C10.3801 28.9103 10.692 28.4436 11.0851 28.0504C11.4783 27.6573 11.945 27.3454 12.4587 27.1326C12.9724 26.9199 13.523 26.8103 14.079 26.8103M80.485 28.2959C80.6528 28.275 80.8224 28.275 80.9901 28.2959L82.3272 28.5931C82.4815 28.6394 82.6415 28.6644 82.8026 28.6673C82.9635 28.6622 83.1231 28.6372 83.278 28.5931L84.6001 28.2959C84.7679 28.275 84.9375 28.275 85.1052 28.2959C85.3441 28.2986 85.5805 28.3438 85.8035 28.4296L89.5175 29.8261C90.184 30.0739 90.7737 30.4925 91.2274 31.0401C91.6811 31.5876 91.9828 32.2449 92.1024 32.9458L93.2463 39.1111C93.4966 40.4333 93.4407 41.7952 93.0829 43.0925L90.9288 50.9958C90.8104 51.4273 90.5522 51.8072 90.1946 52.0761C89.837 52.3449 89.4003 52.4875 88.9529 52.4814H88.7004L87.705 70.3085C87.6785 70.8315 87.4528 71.3245 87.0744 71.6863C86.6959 72.0482 86.1934 72.2516 85.6698 72.2547H80.0394C79.5161 72.255 79.0132 72.0524 78.6364 71.6894C78.2595 71.3264 78.0382 70.8314 78.019 70.3085L77.0088 52.4814H76.7562C76.3069 52.4883 75.868 52.3462 75.5079 52.0775C75.1479 51.8088 74.8868 51.4284 74.7655 50.9958L72.6263 43.0627C72.2779 41.7738 72.2271 40.4225 72.4777 39.1111L73.5622 33.0053C73.6788 32.3032 73.9795 31.6446 74.4336 31.0965C74.8877 30.5485 75.4789 30.1306 76.1471 29.8855L79.8462 28.4891C80.0695 28.4045 80.3057 28.3592 80.5445 28.3554M82.862 45.0534C82.9332 45.0558 83.0038 45.0392 83.0665 45.0052C83.1291 44.9713 83.1816 44.9213 83.2185 44.8603L84.199 43.6867C84.3558 43.4448 84.4241 43.1561 84.3922 42.8696L83.5899 31.594L84.0356 31.0146C84.199 30.8214 84.3624 30.5986 84.303 30.3758C84.2902 30.3661 84.2745 30.3609 84.2585 30.3609C84.2424 30.3609 84.2267 30.3661 84.2139 30.3758V30.3758C83.7926 30.4549 83.3649 30.4947 82.9363 30.4946C82.4737 30.5173 82.0108 30.4569 81.5695 30.3163C81.5695 30.3163 81.4507 30.3163 81.4507 30.3163C81.4507 30.3163 81.5398 30.7917 81.7032 31.0146L82.1489 31.594L81.3467 42.8696C81.3148 43.1561 81.383 43.4448 81.5398 43.6867L82.5055 44.8603C82.5458 44.9214 82.6011 44.9712 82.6661 45.005C82.7311 45.0388 82.8036 45.0555 82.8768 45.0534M11.8357 38.2791C11.9988 38.2646 12.1629 38.2646 12.326 38.2791L13.663 38.5911C13.8212 38.6047 13.9802 38.6047 14.1384 38.5911C14.2966 38.6047 14.4556 38.6047 14.6138 38.5911L15.9508 38.2791C16.1139 38.2646 16.278 38.2646 16.4411 38.2791C16.6817 38.2785 16.9198 38.3291 17.1393 38.4277V38.4277L20.8384 39.8093C21.5066 40.0544 22.0979 40.4723 22.5519 41.0203C23.006 41.5683 23.3067 42.227 23.4234 42.929L24.5079 49.0348C24.7582 50.357 24.7023 51.719 24.3444 53.0162L22.22 60.9493C22.0994 61.3795 21.8406 61.758 21.4835 62.0264C21.1264 62.2949 20.6909 62.4384 20.2442 62.4349H19.9916L18.9814 80.262C18.9548 80.7836 18.7286 81.2749 18.3498 81.6344C17.9709 81.9939 17.4684 82.194 16.9462 82.1933H11.3306C10.807 82.1902 10.3045 81.9868 9.926 81.6249C9.54756 81.2631 9.32192 80.7701 9.29537 80.2472L8.30002 62.42H8.04747C7.59951 62.4287 7.16155 62.2871 6.80345 62.0179C6.44534 61.7486 6.1877 61.3672 6.07163 60.9344L3.91752 53.0162C3.55968 51.719 3.50377 50.357 3.7541 49.0348L4.83858 42.929C4.95813 42.2281 5.25988 41.5708 5.71358 41.0233C6.16728 40.4757 6.75697 40.057 7.42352 39.8093L11.1375 38.4277C11.357 38.3291 11.5951 38.2785 11.8357 38.2791M14.1384 54.9921C14.2116 54.9941 14.2841 54.9774 14.3491 54.9436C14.4141 54.9099 14.4694 54.86 14.5098 54.7989L15.4754 53.6253C15.6312 53.3885 15.6995 53.1048 15.6686 52.8231L14.8663 41.5326L15.312 40.9532C15.4026 40.8735 15.4747 40.7752 15.5234 40.6648C15.5722 40.5545 15.5963 40.435 15.5943 40.3144C15.5804 40.3078 15.5651 40.3044 15.5497 40.3044C15.5343 40.3044 15.5191 40.3078 15.5051 40.3144C15.0839 40.3936 14.6562 40.4333 14.2275 40.4332C13.7651 40.4534 13.3026 40.3931 12.8608 40.255H12.7568C12.6677 40.5075 12.7568 40.7304 12.9945 40.9532L13.4402 41.5326L12.638 52.8231C12.607 53.1048 12.6753 53.3885 12.8311 53.6253L13.8116 54.7989C13.8485 54.8599 13.901 54.9099 13.9636 54.9439C14.0263 54.9778 14.0969 54.9944 14.1681 54.9921M60.2215 68.0504C60.9353 67.9955 61.6427 68.2182 62.1963 68.6721C62.7498 69.126 63.1068 69.7761 63.1927 70.4868V95.2962C63.1515 95.6524 62.9735 95.9785 62.6963 96.2058C62.4191 96.4331 62.0644 96.5438 61.7071 96.5144H35.2636C34.9063 96.5438 34.5516 96.4331 34.2744 96.2058C33.9972 95.9785 33.8192 95.6524 33.778 95.2962V70.4868C33.8604 69.7746 34.2164 69.1223 34.7708 68.6677C35.3252 68.213 36.0346 67.9917 36.7491 68.0504H60.2215M93.5137 76.2509C94.267 76.2491 94.9928 76.5334 95.5444 77.0464C96.096 77.5594 96.4322 78.2627 96.4849 79.0141V95.1328C96.4585 95.5085 96.2905 95.8602 96.0147 96.1167C95.7389 96.3732 95.3759 96.5154 94.9993 96.5144H70.7098C70.3332 96.5154 69.9703 96.3732 69.6945 96.1167C69.4187 95.8602 69.2506 95.5085 69.2242 95.1328V78.9696C69.277 78.2181 69.6131 77.5148 70.1647 77.0018C70.7163 76.4888 71.4422 76.2045 72.1954 76.2064H93.5137M24.7901 86.1895C25.6164 86.2394 26.3902 86.6111 26.9456 87.2249C27.5011 87.8386 27.7939 88.6456 27.7613 89.4727V94.8803C27.7775 95.2931 27.6309 95.6957 27.353 96.0014C27.0751 96.3071 26.6882 96.4914 26.2757 96.5144H1.97139C1.5589 96.4914 1.172 96.3071 0.8941 96.0014C0.616199 95.6957 0.469558 95.2931 0.485792 94.8803V89.4727C0.453198 88.6456 0.746016 87.8386 1.30145 87.2249C1.85689 86.6111 2.63071 86.2394 3.45698 86.1895H24.7901ZM48.5002 -0.999983C46.8217 -0.999983 45.212 -0.333218 44.0252 0.853631C42.8383 2.04048 42.1716 3.65019 42.1716 5.32865C42.1865 7.91636 43.2222 10.3936 45.0536 12.2218L44.5039 12.3704L40.2997 13.9748C39.2944 14.3467 38.4044 14.976 37.7188 15.7999C37.0331 16.6237 36.5758 17.6132 36.3926 18.6693L35.1596 25.6367C34.8317 27.3639 34.908 29.1435 35.3824 30.8363L37.8336 39.9133C37.9972 40.5434 38.3192 41.1213 38.7691 41.5919C39.2189 42.0625 39.7816 42.4103 40.4037 42.6022L41.4733 61.6772C41.5226 62.6548 41.9441 63.5765 42.6512 64.2533C43.3584 64.93 44.2977 65.3106 45.2765 65.3169H51.7091C52.6905 65.3144 53.6335 64.9355 54.3438 64.2583C55.0541 63.5812 55.4776 62.6574 55.5271 61.6772L56.5967 42.6022C57.2188 42.4103 57.7815 42.0625 58.2313 41.5919C58.6812 41.1213 59.0032 40.5434 59.1668 39.9133L61.618 30.8363C62.0924 29.1435 62.1687 27.3639 61.8408 25.6367L60.5929 18.6693C60.4154 17.6132 59.9619 16.6228 59.2784 15.7984C58.5949 14.974 57.7056 14.3449 56.7007 13.9748L52.4816 12.3704C52.3175 12.3073 52.1486 12.2576 51.9765 12.2218C53.7917 10.384 54.8201 7.91166 54.8437 5.32865C54.8437 4.49631 54.6795 3.67214 54.3605 2.90335C54.0416 2.13456 53.5741 1.43623 52.9848 0.84837C52.3956 0.260508 51.6962 -0.205346 50.9266 -0.522515C50.1571 -0.839683 49.3325 -1.00194 48.5002 -0.999983V-0.999983ZM48.2031 30.3163L48.4853 26.4538L48.7676 30.3312L48.5002 30.658L48.2031 30.3015V30.3163ZM82.862 15.3416C81.3463 15.3455 79.8938 15.9493 78.822 17.0211C77.7502 18.0929 77.1464 19.5454 77.1425 21.0611C77.1515 23.258 77.9715 25.3741 79.4451 27.0035H79.2966L75.6272 28.3851C74.7159 28.7192 73.909 29.2881 73.2882 30.0342C72.6673 30.7803 72.2545 31.6771 72.0914 32.6339L71.007 38.7248C70.7238 40.2598 70.7898 41.839 71.2001 43.345L73.3542 51.2929C73.4972 51.853 73.777 52.3688 74.1685 52.794C74.5601 53.2193 75.0511 53.5407 75.5974 53.7293L76.5334 70.3085C76.5753 71.2112 76.9627 72.0631 77.6153 72.6881C78.2679 73.313 79.1358 73.6631 80.0394 73.666H85.6698C86.5738 73.6598 87.4414 73.3089 88.0956 72.6851C88.7498 72.0612 89.1415 71.2112 89.1906 70.3085L90.1266 53.759C90.6703 53.5658 91.1588 53.2429 91.5496 52.8184C91.9405 52.3939 92.222 51.8805 92.3698 51.3226L94.5091 43.3896C94.9359 41.8811 95.0021 40.2933 94.7022 38.7545L93.6177 32.6487C93.4579 31.6946 93.0478 30.7999 92.4293 30.0561C91.8107 29.3123 91.0058 28.7459 90.0968 28.4148L86.3829 27.0183H86.2789C87.7525 25.389 88.5725 23.2728 88.5815 21.0759C88.5815 19.5577 87.9794 18.1013 86.9072 17.0264C85.835 15.9514 84.3803 15.3455 82.862 15.3416V15.3416ZM82.862 42.8696V42.2457V42.8696ZM14.1384 25.3247C12.6227 25.3287 11.1702 25.9325 10.0984 27.0043C9.02664 28.0761 8.42279 29.5286 8.41887 31.0443C8.4279 33.2412 9.24791 35.3573 10.7215 36.9867H10.573L6.90356 38.3683C5.99866 38.7163 5.20259 39.2987 4.59694 40.0557C3.99129 40.8128 3.59786 41.7173 3.45698 42.6765L2.3725 48.7674C2.07215 50.3012 2.13832 51.8843 2.56562 53.3876L4.6306 61.395C4.78679 61.9419 5.07208 62.4433 5.46246 62.8569C5.85285 63.2706 6.33689 63.5844 6.87385 63.7719L7.80977 80.3214C7.85183 81.2266 8.24126 82.0807 8.89705 82.7061C9.55283 83.3314 10.4245 83.6799 11.3306 83.6789H16.9462C17.8523 83.6799 18.724 83.3314 19.3798 82.7061C20.0355 82.0807 20.425 81.2266 20.467 80.3214L21.403 63.7719C21.9424 63.5888 22.4289 63.2765 22.8199 62.8622C23.2109 62.4479 23.4946 61.9441 23.6462 61.395L25.7409 53.4025C26.1535 51.8917 26.2195 50.3073 25.934 48.7674L24.8495 42.6765C24.6851 41.7202 24.2717 40.8241 23.651 40.0783C23.0304 39.3324 22.2243 38.7632 21.3138 38.4277L17.6147 37.0312H17.4958C18.9695 35.4019 19.7895 33.2857 19.7985 31.0889C19.7946 29.5731 19.1907 28.1206 18.119 27.0489C17.0472 25.9771 15.5947 25.3732 14.079 25.3693L14.1384 25.3247ZM14.1384 52.8528V52.2289V52.8528ZM60.281 66.5648H36.764C35.6552 66.5035 34.5667 66.8802 33.7331 67.6138C32.8994 68.3475 32.3874 69.3792 32.3072 70.4868V95.2962C32.3495 96.0463 32.6845 96.7498 33.2401 97.2555C33.7958 97.7611 34.5277 98.0285 35.2784 98H61.7368C62.4876 98.0285 63.2195 97.7611 63.7751 97.2555C64.3308 96.7498 64.6658 96.0463 64.708 95.2962V70.4868C64.6279 69.3792 64.1158 68.3475 63.2822 67.6138C62.4485 66.8802 61.36 66.5035 60.2512 66.5648H60.281ZM93.5137 74.7653H72.2103C71.0569 74.7414 69.9408 75.1747 69.1058 75.9708C68.2708 76.7668 67.7846 77.8609 67.7535 79.0141V95.1328C67.7805 95.9027 68.1054 96.632 68.6597 97.1669C69.214 97.7018 69.9544 98.0005 70.7247 98H95.0142C95.7845 98.0005 96.5249 97.7018 97.0792 97.1669C97.6335 96.632 97.9584 95.9027 97.9853 95.1328V78.9696C97.9318 77.824 97.4387 76.7431 96.6087 75.9517C95.7786 75.1604 94.6754 74.7195 93.5286 74.7208L93.5137 74.7653ZM24.7901 84.7039H3.45698C2.23536 84.7504 1.08158 85.2777 0.24685 86.1708C-0.587879 87.064 -1.03595 88.2507 -0.999802 89.4727V94.8803C-1.01581 95.6869 -0.712609 96.4673 -0.156177 97.0515C0.400255 97.6358 1.1649 97.9767 1.97139 98H26.2906C27.0971 97.9767 27.8617 97.6358 28.4181 97.0515C28.9746 96.4673 29.2778 95.6869 29.2618 94.8803V89.4727C29.2979 88.2507 28.8498 87.064 28.0151 86.1708C27.1804 85.2777 26.0266 84.7504 24.805 84.7039H24.7901Z" fill="#F4F4F2"/>
</svg>
