<svg width="35" height="33" viewBox="0 0 35 33" fill="none" xmlns="http://www.w3.org/2000/svg">
<g clip-path="url(#clip0_16_499)">
<path d="M26.3725 32.9C26.1795 32.9146 25.9856 32.9146 25.7925 32.9C22.1235 32.4495 18.5866 31.2478 15.4025 29.37C10.8517 26.7093 7.06326 22.9208 4.40252 18.37C2.50248 15.0823 1.32308 11.4282 0.942521 7.65001C0.829824 6.44189 1.16029 5.234 1.87232 4.25152C2.58434 3.26903 3.62934 2.57899 4.81252 2.31001L9.19252 1.31001C9.68117 1.19593 10.1946 1.26147 10.6389 1.49464C11.0832 1.72782 11.4288 2.11307 11.6125 2.58001L14.2525 9.17001C14.4144 9.56577 14.4503 10.0018 14.3555 10.4187C14.2607 10.8356 14.0396 11.2132 13.7225 11.5L10.5825 14.35C10.5709 14.3679 10.5647 14.3887 10.5647 14.41C10.5647 14.4313 10.5709 14.4522 10.5825 14.47C12.632 18.1174 15.6317 21.1413 19.2625 23.22C19.279 23.2348 19.3004 23.2429 19.3225 23.2429C19.3447 23.2429 19.366 23.2348 19.3825 23.22L22.0325 20.32C22.3193 20.0029 22.6969 19.7819 23.1138 19.687C23.5307 19.5922 23.9668 19.6282 24.3625 19.79L30.9425 22.4C31.4082 22.5854 31.7921 22.9313 32.0251 23.3751C32.258 23.819 32.3245 24.3314 32.2125 24.82L31.2125 29.02C30.9604 30.1172 30.3453 31.0972 29.467 31.8013C28.5886 32.5055 27.4983 32.8926 26.3725 32.9ZM9.67252 3.25001L5.29252 4.25001C4.57632 4.40565 3.94186 4.81808 3.50892 5.40946C3.07598 6.00084 2.8745 6.73025 2.94252 7.46001C3.31538 10.9338 4.41595 14.29 6.17252 17.31C8.64522 21.5593 12.1677 25.1025 16.4025 27.6C19.3518 29.3382 22.6257 30.4544 26.0225 30.88C26.7534 30.963 27.4892 30.7745 28.0903 30.3505C28.6913 29.9264 29.1156 29.2964 29.2825 28.58L30.2825 24.38C30.2892 24.3561 30.2867 24.3306 30.2756 24.3085C30.2645 24.2863 30.2456 24.269 30.2225 24.26L23.6325 21.63C23.6177 21.6159 23.598 21.6081 23.5775 21.6081C23.5571 21.6081 23.5374 21.6159 23.5225 21.63L20.8825 24.53C20.5604 24.8805 20.1292 25.1118 19.6589 25.1862C19.1887 25.2606 18.7072 25.1739 18.2925 24.94C14.3375 22.6936 11.0755 19.4039 8.86252 15.43C8.62881 15.0163 8.54306 14.5353 8.61941 14.0662C8.69576 13.5972 8.92965 13.1683 9.28252 12.85L12.4125 9.99001C12.4247 9.97426 12.4313 9.95491 12.4313 9.93501C12.4313 9.91511 12.4247 9.89576 12.4125 9.88001L9.76252 3.31001C9.75485 3.29243 9.74229 3.27743 9.72633 3.26679C9.71038 3.25615 9.6917 3.25033 9.67252 3.25001Z" fill="#112F82"/>
<path fill-rule="evenodd" clip-rule="evenodd" d="M18.4326 2.04001C18.2851 2.07696 18.1312 2.07981 17.9824 2.04834C17.8337 2.01687 17.6941 1.95191 17.5743 1.85839C17.4544 1.76488 17.3575 1.64526 17.2908 1.50865C17.2241 1.37204 17.1895 1.22202 17.1895 1.07001C17.1895 0.91799 17.2241 0.767974 17.2908 0.631362C17.3575 0.49475 17.4544 0.375139 17.5743 0.281621C17.6941 0.188103 17.8337 0.12314 17.9824 0.09167C18.1312 0.0601999 18.2851 0.0630512 18.4326 0.100007C20.5661 0.0994055 22.6782 0.525506 24.6446 1.35324C26.611 2.18097 28.392 3.39362 29.8828 4.91984C31.3736 6.44606 32.5441 8.25503 33.3255 10.2403C34.1068 12.2256 34.4832 14.3471 34.4326 16.48C34.4173 16.7347 34.3052 16.9739 34.1193 17.1486C33.9334 17.3234 33.6877 17.4205 33.4326 17.42C33.1779 17.4047 32.9387 17.2926 32.7639 17.1067C32.5892 16.9208 32.4921 16.6751 32.4926 16.42C32.5405 14.5147 32.2002 12.6196 31.4926 10.85C30.7884 9.11301 29.7459 7.53335 28.4257 6.20287C27.1055 4.8724 25.534 3.81767 23.8026 3.10001C22.0997 2.39679 20.2749 2.03657 18.4326 2.04001Z" fill="#112F82"/>
<path fill-rule="evenodd" clip-rule="evenodd" d="M18.4326 11.21C18.2851 11.247 18.1312 11.2498 17.9824 11.2184C17.8337 11.1869 17.6941 11.1219 17.5743 11.0284C17.4544 10.9349 17.3575 10.8153 17.2908 10.6787C17.2241 10.5421 17.1895 10.392 17.1895 10.24C17.1895 10.088 17.2241 9.93799 17.2908 9.80138C17.3575 9.66476 17.4544 9.54515 17.5743 9.45163C17.6941 9.35812 17.8337 9.29315 17.9824 9.26168C18.1312 9.23021 18.2851 9.23306 18.4326 9.27002C19.3252 9.26842 20.2092 9.44522 21.0326 9.79002C21.8584 10.125 22.607 10.6252 23.2326 11.26C23.9213 11.9406 24.4537 12.763 24.7926 13.67C25.1326 14.5795 25.2725 15.5516 25.2026 16.52C25.1777 16.7675 25.0614 16.9969 24.8765 17.1633C24.6916 17.3297 24.4513 17.4213 24.2026 17.42C23.955 17.3951 23.7257 17.2789 23.5593 17.094C23.3928 16.9091 23.3013 16.6688 23.3026 16.42C23.3463 15.7396 23.2441 15.0577 23.0026 14.42C22.7658 13.7709 22.3865 13.1831 21.8926 12.7C21.4458 12.2447 20.9117 11.8843 20.3224 11.6403C19.733 11.3963 19.1004 11.2737 18.4626 11.28L18.4326 11.21Z" fill="#112F82"/>
<path fill-rule="evenodd" clip-rule="evenodd" d="M18.4327 6.84001C18.2164 6.78582 18.0245 6.66093 17.8874 6.48519C17.7503 6.30945 17.6758 6.09292 17.6758 5.87001C17.6758 5.64709 17.7503 5.43057 17.8874 5.25483C18.0245 5.07908 18.2164 4.9542 18.4327 4.90001C19.8985 4.89762 21.3503 5.18532 22.7045 5.74655C24.0586 6.30777 25.2883 7.13141 26.3227 8.17001C27.4136 9.25426 28.2662 10.5543 28.8258 11.987C29.3855 13.4197 29.6398 14.9534 29.5727 16.49C29.6072 16.6396 29.6068 16.7951 29.5715 16.9444C29.5363 17.0938 29.4671 17.2331 29.3694 17.3514C29.2717 17.4698 29.148 17.5641 29.008 17.6269C28.868 17.6898 28.7154 17.7196 28.562 17.7141C28.4086 17.7085 28.2586 17.6677 28.1235 17.5949C27.9884 17.522 27.8719 17.419 27.783 17.2939C27.6941 17.1688 27.6353 17.0249 27.6109 16.8733C27.5866 16.7218 27.5974 16.5667 27.6427 16.42C27.6911 15.1475 27.4801 13.8784 27.0227 12.69C26.5643 11.5349 25.8785 10.4838 25.0058 9.59904C24.1331 8.71432 23.0914 8.0141 21.9427 7.54001C20.8243 7.07427 19.6242 6.8363 18.4127 6.84001H18.4327Z" fill="#112F82"/>
</g>
<defs>
<clipPath id="clip0_16_499">
<rect width="33.45" height="32.8" fill="white" transform="translate(0.942627 0.100006)"/>
</clipPath>
</defs>
</svg>
