<svg width="101" height="101" viewBox="0 0 101 101" fill="none" xmlns="http://www.w3.org/2000/svg">
<g clip-path="url(#clip0_16_618)">
<path d="M77.7563 35.1861C78.1235 36.4289 78.7491 37.5801 79.5922 38.5641C80.4352 39.5481 81.4766 40.3427 82.6481 40.8958C81.4778 41.4549 80.4378 42.2533 79.5952 43.2396C78.7526 44.2258 78.1261 45.378 77.7563 46.6215C77.3892 45.3767 76.7638 44.2232 75.9209 43.2366C75.078 42.25 74.0366 41.4524 72.8646 40.8958C74.0378 40.3452 75.0806 39.5514 75.924 38.5671C76.7673 37.5827 77.3919 36.4302 77.7563 35.1861ZM77.7563 30.1641L76.1577 34.6743C75.8661 35.717 75.3541 36.685 74.6563 37.5128C73.9586 38.3405 73.0913 39.0088 72.1132 39.4724L68.916 40.9278L72.1132 42.3832C73.089 42.8503 73.9542 43.5196 74.6515 44.3469C75.3488 45.1741 75.8623 46.1403 76.1577 47.1813L77.7563 51.6755L79.3549 47.1813C79.6532 46.1416 80.1676 45.1767 80.8646 44.3498C81.5616 43.523 82.4254 42.8528 83.3994 42.3832L86.5966 40.9278L83.3994 39.4884C82.4272 39.0163 81.5648 38.3453 80.8681 37.5188C80.1714 36.6923 79.6559 35.7287 79.3549 34.6903L77.7563 30.1801V30.1641Z" fill="#F4F4F2"/>
<path d="M16.8334 9.4683C17.1978 10.7125 17.8224 11.8649 18.6657 12.8493C19.5091 13.8337 20.5519 14.6274 21.7251 15.178C20.5531 15.7346 19.5117 16.5322 18.6688 17.5189C17.8258 18.5055 17.2004 19.6589 16.8334 20.9038C16.4636 19.6602 15.8371 18.5081 14.9945 17.5218C14.1519 16.5355 13.1119 15.7371 11.9416 15.178C13.1131 14.6249 14.1545 13.8303 14.9975 12.8463C15.8405 11.8623 16.4662 10.7111 16.8334 9.4683ZM16.8334 4.44629L15.3147 8.9565C15.0164 9.9962 14.502 10.9611 13.805 11.788C13.108 12.6149 12.2442 13.285 11.2702 13.7546L8.073 15.194L11.2702 16.6495C12.2442 17.119 13.108 17.7892 13.805 18.6161C14.502 19.443 15.0164 20.4079 15.3147 21.4476L16.8334 25.9418L18.432 21.4476C18.7302 20.4079 19.2447 19.443 19.9417 18.6161C20.6387 17.7892 21.5025 17.119 22.4764 16.6495L25.6737 15.194L22.4764 13.7546C21.5025 13.285 20.6387 12.6149 19.9417 11.788C19.2447 10.9611 18.7302 9.9962 18.432 8.9565L16.8334 4.44629Z" fill="#F4F4F2"/>
<path d="M62.5216 38.3848V99.4006H38.5425V38.3848H42.6029C44.0561 40.2512 45.6601 41.9951 47.3987 43.5987C48.2604 44.3698 49.3759 44.7961 50.532 44.7961C51.6881 44.7961 52.8036 44.3698 53.6653 43.5987C55.4039 41.9951 57.0079 40.2512 58.4611 38.3848H62.5216ZM64.1202 36.7854H57.7257L57.2302 37.3932C55.831 39.1965 54.28 40.8766 52.5942 42.4152C52.0263 42.921 51.2924 43.2005 50.532 43.2005C49.7716 43.2005 49.0377 42.921 48.4698 42.4152C46.7845 40.8761 45.2336 39.196 43.8338 37.3932L43.3223 36.7854H36.9279V101H64.1042V36.7854H64.1202Z" fill="#F4F4F2"/>
<path d="M36.8799 59.3044V99.4006H17.5847V59.3044H25.5777C25.6442 59.8885 25.6762 60.4759 25.6736 61.0637C25.7108 61.2485 25.8107 61.4147 25.9564 61.5341C26.1021 61.6534 26.2846 61.7187 26.4729 61.7187C26.6613 61.7187 26.8438 61.6534 26.9895 61.5341C27.1352 61.4147 27.2351 61.2485 27.2723 61.0637C27.2746 60.4756 27.3119 59.8881 27.3842 59.3044H36.8959M38.4945 57.7051H15.9861V101H38.3666V57.7051H38.4945Z" fill="#F4F4F2"/>
<path d="M58.1574 14.3943C58.2619 14.3949 58.3653 14.4165 58.4614 14.4577C58.5574 14.4989 58.6443 14.5589 58.7169 14.6342L60.9869 16.9053C61.0618 16.9797 61.1213 17.0681 61.1618 17.1656C61.2024 17.263 61.2233 17.3675 61.2233 17.4731C61.2233 17.5787 61.2024 17.6832 61.1618 17.7806C61.1213 17.8781 61.0618 17.9665 60.9869 18.0409L49.9085 29.1085C49.7653 29.2355 49.5804 29.3057 49.389 29.3057C49.1975 29.3057 49.0127 29.2355 48.8694 29.1085L42.6189 24.4224C42.4558 24.2901 42.3476 24.1021 42.3152 23.8946C42.2985 23.7913 42.3026 23.6858 42.3273 23.5841C42.352 23.4825 42.3968 23.3868 42.459 23.3028L44.3933 20.7918C44.4544 20.7049 44.5328 20.6315 44.6236 20.5765C44.7144 20.5214 44.8156 20.4858 44.9209 20.4719H45.0328C45.208 20.474 45.3773 20.5361 45.5124 20.6479L47.3028 21.9913C47.7708 22.3518 48.3547 22.5281 48.9439 22.4868C49.5331 22.4456 50.0868 22.1896 50.5 21.7674L57.5499 14.6182C57.6305 14.5414 57.726 14.4819 57.8304 14.4434C57.9349 14.4049 58.0462 14.3882 58.1574 14.3943ZM58.1574 12.795C57.5216 12.7955 56.9121 13.0486 56.4628 13.4987L49.3171 20.6319C49.1646 20.7849 48.9576 20.8712 48.7416 20.8718C48.5688 20.8706 48.4009 20.8146 48.262 20.7118L46.4715 19.3684C46.0602 19.048 45.5541 18.8736 45.0328 18.8726H44.7131C44.3988 18.9146 44.0958 19.0181 43.8215 19.1773C43.5472 19.3364 43.307 19.5481 43.1145 19.8002L41.1801 22.3912C40.8064 22.8963 40.6456 23.528 40.7325 24.1505C40.7701 24.4662 40.8717 24.7709 41.0312 25.0459C41.1906 25.3209 41.4045 25.5604 41.6597 25.7498L47.9582 30.388C48.3722 30.7015 48.8778 30.8701 49.397 30.8678C50.0327 30.8672 50.6422 30.6141 51.0915 30.1641L62.1219 19.1924C62.5698 18.7351 62.822 18.1213 62.8253 17.4811C62.8213 16.8457 62.5688 16.2372 62.1219 15.7858L59.8519 13.4827C59.4 13.0385 58.7908 12.7913 58.1574 12.795Z" fill="#F4F4F2"/>
<path d="M15.9861 80.1602V99.3526H1.59861V80.1602H15.9861ZM17.5847 78.5608H0V100.952H17.5847V78.5608Z" fill="#F4F4F2"/>
<path d="M26.457 47.981C27.0789 49.7463 28.3473 51.2096 30.0059 52.0754C28.3542 52.95 27.0886 54.4102 26.457 56.1698C25.82 54.4133 24.5558 52.9549 22.9081 52.0754C24.5636 51.2058 25.8308 49.7438 26.457 47.981ZM26.457 43.5508L24.9543 47.4053C24.4499 48.7763 23.4601 49.9145 22.1727 50.604L19.4231 52.0114L22.1727 53.4349C23.4639 54.1196 24.4551 55.2594 24.9543 56.6336L26.457 60.4881L27.9437 56.6336C28.444 55.2551 29.442 54.114 30.7412 53.4349L33.4749 52.0114L30.7412 50.604C29.4449 49.9211 28.4481 48.7813 27.9437 47.4053L26.457 43.5508Z" fill="#F4F4F2"/>
<path d="M50.5 1.59938C50.9261 1.59495 51.3481 1.6827 51.7372 1.85661C52.1262 2.03052 52.4731 2.28648 52.7541 2.60698C56.9904 7.66098 61.4185 8.90848 64.3759 9.00445C64.8121 9.02251 65.2399 9.12975 65.6331 9.31954C66.0262 9.50934 66.3764 9.77767 66.6619 10.108C66.906 10.4009 67.0872 10.7409 67.1945 11.1068C67.3017 11.4727 67.3327 11.8568 67.2854 12.2352C66.3742 19.3364 63.2249 32.6751 52.5302 42.3992C51.9672 42.9151 51.2315 43.2012 50.468 43.2012C49.7046 43.2012 48.9689 42.9151 48.4058 42.3992C37.7112 32.6751 34.5779 19.3364 33.6507 12.2352C33.6034 11.8568 33.6343 11.4727 33.7416 11.1068C33.8488 10.7409 34.0301 10.4009 34.2742 10.108C34.5597 9.77767 34.9099 9.50934 35.303 9.31954C35.6962 9.12975 36.124 9.02251 36.5602 9.00445C39.5176 8.84451 43.9457 7.597 48.182 2.60698C48.47 2.27812 48.8272 2.0172 49.228 1.84298C49.6288 1.66875 50.0632 1.58556 50.5 1.59938ZM48.7415 20.7918C48.5684 20.793 48.3998 20.7367 48.262 20.6318L46.4715 19.2884C46.0603 18.9812 45.5619 18.8131 45.0488 18.8086H44.6971C44.3815 18.8462 44.077 18.9478 43.8021 19.1073C43.5272 19.2668 43.2878 19.4808 43.0985 19.7362L41.1801 22.3911C40.8027 22.9016 40.6414 23.5403 40.7311 24.1689C40.8209 24.7975 41.1545 25.3655 41.6597 25.7498L47.9582 30.388C48.4249 30.7518 49.0095 30.9303 49.5997 30.8889C50.1899 30.8476 50.744 30.5894 51.1554 30.1641L62.1219 19.1924C62.3466 18.9694 62.525 18.704 62.6468 18.4117C62.7685 18.1194 62.8312 17.8058 62.8312 17.4891C62.8312 17.1724 62.7685 16.8588 62.6468 16.5665C62.525 16.2741 62.3466 16.0088 62.1219 15.7858L59.8519 13.4827C59.399 13.04 58.7905 12.793 58.1573 12.7949C57.8424 12.7943 57.5305 12.8562 57.2396 12.977C56.9488 13.0978 56.6847 13.2751 56.4628 13.4987L49.317 20.6318C49.1594 20.7749 48.9544 20.8547 48.7415 20.8557M50.5 0.0639855C49.8325 0.0565099 49.1715 0.195891 48.5637 0.472267C47.956 0.748643 47.4164 1.15526 46.9831 1.66335C43.1624 6.20555 39.1499 7.32511 36.5122 7.46905C35.8608 7.48801 35.22 7.6396 34.6291 7.91459C34.0381 8.18957 33.5094 8.58217 33.0752 9.06842C32.6884 9.52977 32.4019 10.0667 32.234 10.645C32.0661 11.2233 32.0205 11.8302 32.1 12.4271C33.0432 19.7362 36.2884 33.5067 47.3667 43.5668L47.8144 43.9826H47.9582C48.7284 44.5017 49.6354 44.78 50.564 44.7823C51.7462 44.8029 52.891 44.3676 53.7612 43.5668C64.8395 33.5067 68.1486 19.7362 69.0279 12.4271C69.1075 11.8302 69.0618 11.2233 68.894 10.645C68.7261 10.0667 68.4396 9.52977 68.0527 9.06842C67.6185 8.58217 67.0898 8.18957 66.4989 7.91459C65.9079 7.6396 65.2672 7.48801 64.6157 7.46905C61.978 7.32511 58.0135 6.18956 54.1448 1.58338C53.7123 1.07444 53.1728 0.667228 52.5649 0.390776C51.957 0.114324 51.2956 -0.024562 50.6279 -0.0159828L50.5 0.0639855ZM48.7415 22.4551C49.0593 22.4587 49.3745 22.3983 49.6684 22.2774C49.9623 22.1565 50.2288 21.9776 50.4521 21.7514L57.5499 14.6182C57.7027 14.4659 57.9096 14.3803 58.1254 14.3803C58.3411 14.3803 58.5481 14.4659 58.7009 14.6182L60.9549 16.8893C61.0317 16.9607 61.0927 17.0474 61.134 17.1438C61.1753 17.2402 61.196 17.3442 61.1947 17.4491C61.1942 17.6652 61.1079 17.8723 60.9549 18.0249L49.9245 29.1085C49.7668 29.2516 49.5619 29.3313 49.349 29.3324C49.1763 29.3313 49.0083 29.2753 48.8694 29.1725L42.6189 24.4863C42.5343 24.4244 42.4635 24.3455 42.4112 24.2546C42.3589 24.1637 42.3262 24.0628 42.3151 23.9585C42.2808 23.7645 42.3207 23.5646 42.4271 23.3987L44.3933 20.7918C44.4552 20.7071 44.5341 20.6363 44.625 20.584C44.7158 20.5317 44.8166 20.4989 44.9209 20.4879H45.0488C45.217 20.4866 45.3807 20.543 45.5124 20.6478L47.3028 21.9913C47.7168 22.3048 48.2223 22.4735 48.7415 22.4711V22.4551Z" fill="#F4F4F2"/>
<path d="M83.3673 59.3044V99.4006H64.1841V59.3044H83.3673ZM84.966 57.7051H62.5854V101H84.966V57.7051Z" fill="#F4F4F2"/>
<path d="M99.4014 80.1602V99.3526H85.0139V80.1602H99.4014ZM101 78.5608H83.4153V100.952H101V78.5608Z" fill="#F4F4F2"/>
</g>
<defs>
<clipPath id="clip0_16_618">
<rect width="101" height="101" fill="white"/>
</clipPath>
</defs>
</svg>
